<svg viewBox="-0.5 -0.5 16 16" fill="none" xmlns="http://www.w3.org/2000/svg" id="Exclamation-Circle--Streamline-Unicons" height="20" width="20"><desc>Exclamation Circle Streamline Icon: https://streamlinehq.com</desc><path d="M7.5 0.15C3.4575 0.15 0.15 3.4575 0.15 7.5S3.4575 14.850000000000001 7.5 14.850000000000001S14.850000000000001 11.5425 14.850000000000001 7.5S11.5425 0.15 7.5 0.15ZM7.5 11.174999999999999C7.058999999999999 11.174999999999999 6.765 10.881 6.765 10.440000000000001S7.058999999999999 9.705 7.5 9.705S8.235 9.999 8.235 10.440000000000001S7.941000000000001 11.174999999999999 7.5 11.174999999999999ZM8.235 7.5C8.235 7.941000000000001 7.941000000000001 8.235 7.5 8.235S6.765 7.941000000000001 6.765 7.5V4.5600000000000005C6.765 4.119 7.058999999999999 3.825 7.5 3.825S8.235 4.119 8.235 4.5600000000000005V7.5Z" fill="#FFFFFF" stroke-width="1"></path></svg>