<svg viewBox="-0.5 -0.5 16 16" fill="none" xmlns="http://www.w3.org/2000/svg"
  id="Check-Circle--Streamline-Unicons" height="20" width="20">
  <desc>Check Circle Streamline Icon: https://streamlinehq.com</desc>
  <path
    d="M7.5 0.15C3.4575 0.15 0.15 3.4575 0.15 7.5S3.4575 14.850000000000001 7.5 14.850000000000001S14.850000000000001 11.5425 14.850000000000001 7.5S11.5425 0.15 7.5 0.15ZM10.587 6.2505L7.058999999999999 9.7785C6.765 10.0725 6.324 10.0725 6.029999999999999 9.7785L4.413 8.1615C4.119 7.8675 4.119 7.426500000000001 4.413 7.1325C4.707 6.8385 5.148000000000001 6.8385 5.442 7.1325L6.544499999999999 8.235L9.558 5.2215C9.852 4.9275 10.293000000000001 4.9275 10.587 5.2215C10.881 5.515499999999999 10.881 5.9565 10.587 6.2505Z"
    fill="#FFFFFF" stroke-width="1"></path>
</svg>